HIERARCHY
ROOT Hips
{
	OFFSET -3.958830 18.904000 13.208200
	CHANNELS 6 Xposition Yposition Zposition Zrotation Yrotation Xrotation 
	JOINT LHipJoint
	{
		OFFSET 0.000000 0.000000 0.000000
		CHANNELS 3 Zrotation Yrotation Xrotation
		JOINT LeftUpLeg
		{
			OFFSET 1.800000 -1.400000 0.085000
			CHANNELS 3 Zrotation Yrotation Xrotation
			JOINT LeftLeg
			{
				OFFSET 2.215000 -6.000000 0.000000
				CHANNELS 3 Zrotation Yrotation Xrotation
				JOINT LeftFoot
				{
					OFFSET 2.500000 -6.900000 0.000000
					CHANNELS 3 Zrotation Yrotation Xrotation
					JOINT LeftToeBase
					{
						OFFSET 0.200000 -0.500000 1.950000
						CHANNELS 3 Zrotation Yrotation Xrotation
						End Site
						{
							OFFSET 0.000000 0.000000 0.000000
						}
					}
				}
			}
		}
	}
	JOINT RHipJoint
	{
		OFFSET 0.000000 0.000000 0.000000
		CHANNELS 3 Zrotation Yrotation Xrotation
		JOINT RightUpLeg
		{
			OFFSET -1.800000 -1.400000 0.085000
			CHANNELS 3 Zrotation Yrotation Xrotation
			JOINT RightLeg
			{
				OFFSET -2.215000 -6.000000 0.000000
				CHANNELS 3 Zrotation Yrotation Xrotation
				JOINT RightFoot
				{
					OFFSET -2.500000 -6.900000 0.000000
					CHANNELS 3 Zrotation Yrotation Xrotation
					JOINT RightToeBase
					{
						OFFSET -0.200000 -0.500000 1.950000
						CHANNELS 3 Zrotation Yrotation Xrotation
						End Site
						{
							OFFSET 0.000000 0.000000 0.000000
						}
					}
				}
			}
		}
	}
	JOINT LowerBack
	{
		OFFSET 0.000000 0.000000 0.000000
		CHANNELS 3 Zrotation Yrotation Xrotation
		JOINT Spine
		{
			OFFSET -0.087000 1.940000 -0.288900
			CHANNELS 3 Zrotation Yrotation Xrotation
			JOINT Spine1
			{
				OFFSET 0.000000 1.950000 0.060000
				CHANNELS 3 Zrotation Yrotation Xrotation
				JOINT Neck
				{
					OFFSET 0.000000 0.000000 0.000000
					CHANNELS 3 Zrotation Yrotation Xrotation
					JOINT Neck1
					{
						OFFSET 0.000000 1.600000 0.340000
						CHANNELS 3 Zrotation Yrotation Xrotation
						JOINT Head
						{
							OFFSET 0.000000 1.667000 -0.240000
							CHANNELS 3 Zrotation Yrotation Xrotation
							End Site
							{
								OFFSET 0.000000 0.000000 0.000000
							}
						}
					}
				}
				JOINT LeftShoulder
				{
					OFFSET 0.000000 0.000000 0.000000
					CHANNELS 3 Zrotation Yrotation Xrotation
					JOINT LeftArm
					{
						OFFSET 2.700000 1.550000 -0.730000
						CHANNELS 3 Zrotation Yrotation Xrotation
						JOINT LeftForeArm
						{
							OFFSET 5.450000 0.000000 0.000000
							CHANNELS 3 Zrotation Yrotation Xrotation
							JOINT LeftHand
							{
								OFFSET 3.450000 0.000000 0.000000
								CHANNELS 3 Zrotation Yrotation Xrotation
								JOINT LeftHandIndex1
								{
									OFFSET 0.750000 0.000000 0.000000
									CHANNELS 3 Zrotation Yrotation Xrotation
									End Site
									{
										OFFSET 0.000000 0.000000 0.000000
									}
								}
							}
						}
					}
				}
				JOINT RightShoulder
				{
					OFFSET 0.000000 0.000000 0.000000
					CHANNELS 3 Zrotation Yrotation Xrotation
					JOINT RightArm
					{
						OFFSET -2.700000 1.550000 -0.730000
						CHANNELS 3 Zrotation Yrotation Xrotation
						JOINT RightForeArm
						{
							OFFSET -5.450000 0.000000 0.000000
							CHANNELS 3 Zrotation Yrotation Xrotation
							JOINT RightHand
							{
								OFFSET -3.450000 0.000000 0.000000
								CHANNELS 3 Zrotation Yrotation Xrotation
								JOINT RightHandIndex1
								{
									OFFSET -0.750000 0.000000 0.000000
									CHANNELS 3 Zrotation Yrotation Xrotation
									End Site
									{
										OFFSET 0.000000 0.000000 0.000000
									}
								}
							}
						}
					}
				}
			}
		}
	}
}
MOTION
Frames: 14
Frame Time: 0.016667
-0.792650 17.768850 -1.271660 -5.999531 2.536358 -2.856245 -15.015678 13.267401 2.435773 11.777002 -0.987519 -5.325055 -9.424059 6.689518 11.128277 -0.743559 5.311041 3.122023 0.353410 -0.133870 0.015270 18.550871 -9.553381 3.705577 -9.513171 5.180035 -34.848760 13.354131 -20.726913 56.280315 -1.683200 -10.357753 1.371924 0.025270 0.669050 0.063120 -4.238159 -3.311469 -7.707378 17.296975 -9.195214 18.342364 -7.536124 -5.811104 7.519843 0.646539 -9.502143 -8.396635 -27.945547 14.203673 43.408868 1.761950 3.364260 -5.481050 -14.140806 9.452913 2.126339 -52.043949 2.860941 -3.710057 140.283150 -43.268794 -110.878242 -3.825515 2.666829 0.936580 0.279960 -0.275860 0.396720 12.452611 -6.241065 2.740183 52.422738 -13.668159 -18.918097 30.066609 28.741584 3.320916 1.470812 -1.181675 -0.574090 0.646680 0.162460 -0.332720 
-0.740680 17.746040 -1.316520 -7.012494 1.927541 -2.998645 -14.976162 12.969331 2.298139 13.084600 -1.156616 -5.126049 -9.631555 6.700310 10.662342 -0.752157 5.378898 3.098797 0.372910 -0.082020 -0.011840 18.659487 -9.285337 4.031607 -10.493239 5.512951 -38.909241 13.279311 -23.763598 62.579573 -2.043007 -11.765605 0.983950 0.070080 0.699640 0.059040 -4.434711 -3.120413 -7.782222 19.404686 -10.815818 19.398339 -8.733143 -6.963506 7.539693 0.468503 -10.251789 -7.894552 -29.072976 15.141856 41.224537 2.036330 3.520100 -6.839520 -14.546388 10.139231 1.526482 -49.721150 3.422110 -4.215949 139.477919 -43.997323 -110.207204 -3.861078 2.647971 0.910990 0.291500 -0.287930 0.414990 13.179202 -7.043820 2.599152 49.200725 -15.444236 -18.492288 34.484319 30.039625 4.420374 1.408649 -1.261139 -0.573660 0.681340 0.167800 -0.307990 
-0.688240 17.702310 -1.362120 -7.826654 1.788589 -3.358618 -14.959789 12.794368 2.146754 13.915483 -1.346433 -5.136277 -9.007533 6.609059 11.026643 -0.791407 5.361435 3.087380 0.469080 0.004780 0.078090 18.722475 -9.089472 4.319372 -11.667139 5.369929 -42.366916 12.975899 -26.486286 67.850381 -2.388550 -12.945962 0.644187 0.125850 0.641600 0.098080 -4.538060 -3.026396 -7.854040 20.678313 -12.388927 20.539574 -9.817846 -8.175720 7.877220 0.676486 -10.511104 -7.347720 -28.912907 15.558969 40.079407 0.566580 4.532670 -8.947960 -15.260573 10.290669 0.888548 -46.713465 3.923887 -4.951271 138.243203 -45.088960 -109.411723 -3.852828 2.659329 0.933610 0.268010 -0.241920 0.429800 13.552733 -7.638929 2.470953 46.857837 -16.298645 -17.911402 38.196725 30.902829 5.410488 1.369801 -1.375654 -0.546540 0.649080 0.113740 -0.327170 
-0.635880 17.636430 -1.424010 -8.872777 1.472637 -3.724621 -14.956873 12.700048 1.968043 14.915575 -1.601551 -6.014456 -8.101629 6.712157 12.950595 -0.833640 5.386511 3.038695 0.514050 0.036860 0.135530 18.758106 -8.873957 4.668976 -12.676986 5.431966 -45.996835 12.788319 -29.112705 72.569907 -2.692059 -14.012168 0.358775 0.142300 0.594210 0.135640 -4.578208 -3.042237 -7.962738 21.899983 -13.744503 22.627454 -10.250845 -9.059494 7.684634 0.970975 -10.659908 -7.072666 -28.491065 15.791215 38.783479 -0.926720 5.463040 -10.678620 -16.342808 9.823065 0.379087 -43.371887 4.461903 -5.788823 136.777167 -46.806606 -109.254923 -3.876096 2.649555 0.949410 0.253900 -0.212000 0.416500 14.166684 -7.549908 2.677832 44.332817 -17.580726 -17.489817 41.861113 33.099033 6.935654 1.320601 -1.478593 -0.520920 0.611510 0.100260 -0.348540 
-0.575420 17.557780 -1.504400 -9.741363 0.901912 -4.620672 -14.980133 12.705463 1.837373 15.843506 -1.840890 -6.791214 -7.350646 7.001416 15.695842 -0.840472 5.509404 2.953279 0.538480 0.048090 0.181640 18.750828 -8.660401 4.991682 -13.695294 5.464293 -49.152623 12.136031 -31.165941 76.953211 -2.953152 -14.885364 0.139284 0.135940 0.528080 0.151520 -4.515995 -3.228625 -8.111325 22.535264 -15.099845 26.738614 -10.277414 -9.905692 6.151745 1.367815 -10.946173 -6.901856 -28.856843 15.959350 37.281990 -2.347220 6.049300 -13.003180 -17.294768 9.709088 -0.197739 -40.520744 4.736392 -6.356603 135.525247 -48.772360 -109.570775 -3.858903 2.620121 0.992560 0.208390 -0.167240 0.400030 14.464546 -7.645334 2.877227 42.354148 -18.383686 -16.884043 45.075139 35.334796 8.775197 1.302109 -1.548581 -0.505040 0.578690 0.084390 -0.369490 
-0.513990 17.453470 -1.577670 -10.476806 0.055872 -5.042005 -14.998447 12.617907 1.734331 16.715672 -2.200346 -8.145484 -7.198018 7.524462 19.043565 -0.819497 5.745589 2.828296 0.568070 0.085180 0.216730 18.767237 -8.439929 5.299708 -14.729534 5.649840 -52.415523 11.372825 -32.839930 80.917750 -3.169908 -15.627746 -0.032655 0.150520 0.479070 0.141910 -4.500311 -3.281294 -8.226565 23.243196 -16.336769 30.255815 -10.476149 -10.604081 4.640473 1.521327 -11.520573 -6.579134 -29.380873 16.051584 34.476505 -3.219400 6.199950 -15.500090 -17.867656 10.022758 -0.758959 -38.288219 4.923487 -6.790543 133.905446 -51.247980 -109.893043 -3.840716 2.585712 1.006300 0.166050 -0.138590 0.394980 14.788117 -7.879611 2.925869 40.443070 -18.674009 -15.945316 48.285777 38.105190 11.107649 1.298448 -1.628357 -0.492070 0.572160 0.059340 -0.373440 
-0.470280 17.322550 -1.650330 -10.680806 -0.878097 -5.246239 -15.052804 12.474912 1.758007 17.593245 -2.888056 -10.265764 -8.076305 8.631437 23.771955 -0.721768 6.324966 2.580560 0.583500 0.108100 0.226070 18.762195 -8.119920 5.588394 -15.997120 5.797293 -55.685968 10.824373 -34.304467 84.247226 -3.353001 -16.259843 -0.160648 0.148640 0.458830 0.146520 -4.410368 -3.470305 -8.401709 22.688232 -17.168604 34.057143 -10.101932 -11.214728 2.670322 1.550545 -12.022339 -6.355396 -29.547035 15.952728 31.236286 -3.837510 6.159760 -17.519270 -17.912717 10.594598 -1.153491 -35.970367 5.743565 -7.147190 132.254979 -53.725539 -109.946753 -3.833545 2.555996 1.007380 0.140780 -0.116730 0.405620 14.884178 -8.197401 2.948614 39.226594 -18.769725 -14.994863 51.925724 41.363608 14.115742 1.302512 -1.710698 -0.472310 0.565150 0.038250 -0.359200 
-0.435530 17.177330 -1.709560 -10.340194 -2.081214 -4.758070 -15.114725 12.199145 1.920671 17.969857 -3.841267 -13.256119 -9.565089 10.109683 28.826091 -0.591248 7.111244 2.280221 0.595640 0.149970 0.223120 18.772790 -7.779892 5.828231 -17.055234 6.060219 -59.275630 9.485266 -34.609482 87.229088 -3.449559 -16.680850 -0.234814 0.178250 0.476980 0.134100 -4.345280 -3.551351 -8.602684 21.604679 -17.338673 36.699918 -9.625237 -11.477837 0.640525 1.344023 -12.226669 -5.691102 -28.430331 15.686414 28.043432 -4.508130 6.381880 -18.358180 -18.569260 11.365406 -1.822677 -32.732714 6.362990 -6.917598 130.368043 -56.701929 -109.796314 -3.864393 2.493876 0.975670 0.154880 -0.119740 0.433330 15.969754 -8.802309 2.742466 37.574864 -18.964583 -13.642800 55.849087 45.274266 17.841596 1.298737 -1.814295 -0.475840 0.586880 0.008700 -0.336890 
-0.404820 17.052360 -1.768530 -9.852840 -3.861322 -4.438607 -15.193752 11.931441 2.199536 18.560678 -4.676079 -15.885736 -11.456627 11.858235 33.054136 -0.397991 7.982629 1.959302 0.609400 0.197980 0.218390 18.755291 -7.452940 5.966188 -17.497352 6.839832 -61.834621 8.399160 -33.956475 88.847126 -3.476838 -16.800560 -0.242493 0.197500 0.481180 0.133740 -4.231402 -3.666713 -8.818571 20.014977 -16.921984 39.793071 -8.750624 -11.268822 -1.441749 1.220923 -12.293884 -5.281071 -27.417352 15.447584 25.551250 -5.312790 6.597820 -19.264130 -19.978390 11.284346 -2.395270 -29.461545 6.607745 -6.688977 127.488202 -59.826149 -108.579178 -3.892711 2.393951 0.941030 0.164420 -0.108470 0.459560 17.664268 -8.465087 2.796812 36.304675 -18.796059 -12.483573 59.762776 49.816608 22.178050 1.323549 -1.897217 -0.457420 0.593710 -0.021380 -0.310060 
-0.362470 16.958590 -1.811540 -9.356359 -5.841199 -4.613366 -15.265664 11.763808 2.496027 19.205364 -5.222852 -17.421176 -13.508991 13.637236 36.064023 -0.185626 8.775453 1.689544 0.607340 0.225160 0.193070 18.715246 -7.243637 5.951686 -17.337550 7.771017 -62.461800 7.505814 -32.533559 89.169690 -3.430374 -16.612422 -0.190878 0.201700 0.480170 0.104070 -4.106306 -3.808768 -8.973211 18.452732 -16.409669 42.964604 -7.656784 -10.948899 -3.232896 1.138294 -12.527792 -5.620532 -27.589606 15.438141 23.782523 -4.674380 5.979190 -20.303210 -20.970336 10.324304 -2.336337 -28.187100 6.588642 -6.562972 119.637431 -64.367487 -102.674867 -3.886078 1.986800 0.932840 0.136520 -0.095620 0.482840 18.959790 -6.964417 3.318097 35.730043 -18.251560 -11.757144 64.421602 54.967252 27.470146 1.399020 -1.920716 -0.452890 0.618770 -0.043060 -0.276920 
-0.339200 16.876860 -1.829790 -8.447448 -7.464490 -4.957103 -15.351181 11.766391 2.760151 19.352014 -5.504242 -18.196515 -15.353037 15.108887 37.809026 -0.086091 9.412494 1.470358 0.591900 0.188350 0.198930 18.633926 -7.094770 5.850217 -16.847781 8.705614 -61.644618 6.627624 -30.628956 88.784695 -3.340898 -16.260216 -0.124002 0.189530 0.477680 0.101890 -3.894771 -4.167619 -9.096533 16.036341 -14.945696 44.799739 -5.971435 -10.031723 -3.610463 1.046131 -12.208928 -6.033382 -26.869870 15.144783 24.013621 -4.990500 5.694630 -21.656790 -21.694749 8.586471 -2.451103 -27.999293 5.653888 -6.937153 103.493949 -71.183082 -86.237295 -3.709012 0.095479 0.986380 0.122260 -0.087640 0.466750 19.842115 -4.806545 4.129671 36.053442 -17.472079 -11.724607 70.027350 59.956957 33.268882 1.457557 -1.859378 -0.484480 0.646310 -0.015320 -0.300040 
-0.322040 16.800720 -1.829560 -7.599404 -8.319822 -5.002782 -15.411392 11.775377 2.968660 19.256164 -5.746560 -18.980882 -16.656059 16.223250 39.202613 0.049949 9.817191 1.296404 0.619830 0.217360 0.219510 18.573282 -7.024911 5.710161 -16.586778 9.123841 -60.118621 6.943540 -29.531970 87.190295 -3.257640 -15.903179 -0.076301 0.181180 0.405960 0.135950 -3.739547 -4.438207 -9.152412 14.531120 -14.102651 44.802280 -4.763356 -9.683202 -4.002188 1.099034 -11.923401 -6.299778 -26.547472 15.029371 24.706907 -5.721040 5.622000 -22.154990 -21.363428 6.099385 -3.378306 -28.325616 6.522208 -13.440741 46.874756 -81.175282 -40.701868 -3.279814 2.033937 0.986440 0.091580 -0.050840 0.450330 19.616187 -2.720868 5.067541 37.850273 -15.988244 -11.702786 77.229213 64.604890 40.342643 1.652613 -1.741142 -0.426640 0.572160 -0.027770 -0.301990 
-0.329950 16.746920 -1.808960 -6.406372 -9.413220 -4.918943 -15.446917 11.862127 3.124296 18.852829 -5.607931 -19.032571 -18.110010 17.028552 39.121950 0.160364 9.999861 1.232613 0.634620 0.248790 0.227490 18.514140 -7.082137 5.513070 -15.649510 9.862814 -57.784423 6.504092 -27.454995 85.461235 -3.123442 -15.344269 0.033390 0.181850 0.378050 0.142340 -3.614173 -4.612027 -9.158707 12.945227 -13.032606 43.401386 -3.785275 -9.278675 -3.326977 0.937768 -11.730157 -7.132040 -26.800264 15.659504 25.724754 -5.694230 5.601940 -21.984390 -21.392195 4.305103 -2.264311 -29.027389 4.874562 -11.434157 14.930946 -70.822102 -13.026512 -3.397818 2.734925 0.969390 0.073260 -0.024530 0.450930 20.140728 -0.590537 5.167467 39.040705 -13.152786 -11.555347 84.567579 67.625030 47.003272 1.914415 -1.459150 -0.389580 0.557030 -0.042220 -0.284300 
-0.361690 16.695890 -1.785250 -5.008066 -10.713383 -3.651084 -15.501727 11.880554 3.347922 18.563411 -5.478812 -20.060802 -20.081776 17.928923 38.511556 0.167800 10.217052 1.156037 0.622560 0.223420 0.245250 18.452094 -7.080374 5.328648 -14.795795 10.526556 -55.771642 6.712376 -25.339794 82.282183 -2.904488 -14.624026 0.184568 0.197660 0.390680 0.121790 -3.463695 -4.793218 -9.198921 10.965323 -11.465200 39.608880 -2.698470 -8.525841 -2.025984 0.624021 -10.996302 -7.690666 -25.264411 16.174151 27.140742 -5.776070 6.475450 -20.561400 -20.701999 2.559419 -1.362659 -30.059568 3.230116 -9.714538 2.938095 -57.856569 -3.774719 -3.462799 2.755477 0.980090 0.098770 -0.050510 0.431190 20.138649 1.306093 5.130379 40.581244 -10.278827 -11.822650 95.368634 68.596972 55.872648 2.133167 -1.038366 -0.435340 0.575680 -0.027360 -0.317990 
